<svg version="1.1" preserveAspectRatio="none" xmlns="http://www.w3.org/2000/svg" width="500" height="500" viewBox="0 0 500 500"><rect width="100%" height="100%" fill="#1E1F22" fill-opacity="1"/><svg viewBox="16.4692 126.96 394.9512 24" width="333" height="20.235411362213867" x="83.5px" y="239.8823px" xmlns="http://www.w3.org/2000/svg" xmlns:xlink="http://www.w3.org/1999/xlink" preserveAspectRatio="none"><defs></defs><style>.companyName {fill:#EBE7D9;fill-opacity:1;}.icon3 {fill:#F55139;fill-opacity:1;}.icon3-str {stroke:#F55139;stroke-opacity:1;}</style><g opacity="1" transform="rotate(0 46.481 126.96)">
<svg width="364.9394" height="24" x="46.481" y="126.96" version="1.1" preserveAspectRatio="none" viewBox="2.52 -28.48 440.36 28.96">
  <g transform="matrix(1 0 0 1 0 0)" class="companyName"><path id="id-D6z1nYkh18" d="M6.96 0L11.48-22.72L2.52-22.72L3.60-28L28-28L26.92-22.72L18-22.72L13.44 0L6.96 0Z M50.68-28L57.16-28L51.56 0L45.08 0L47.36-11.40L34.68-11.40L32.40 0L25.88 0L31.48-28L38-28L35.80-17L48.48-17L50.68-28Z M83.88-22.80L69.20-22.80L68-16.72L81-16.72L80-11.68L66.96-11.68L65.68-5.20L80.96-5.20L79.88 0L58.20 0L63.80-28L84.96-28L83.88-22.80Z M127.92-28L133.48-28L127.92 0L121.84 0L125.12-16.64L114.44-2.96L111.56-2.96L105.80-16.80L102.44 0L96.36 0L101.96-28L107.24-28L114.24-10.56L127.92-28Z M147.76 0.48Q142.48 0.48 139.48-2.14Q136.48-4.76 136.48-9.32L136.48-9.32Q136.48-10.64 136.80-12.32L136.80-12.32L139.92-28L146.44-28L143.32-12.44Q143.08-11.12 143.08-10.08L143.08-10.08Q143.08-7.56 144.46-6.30Q145.84-5.04 148.48-5.04L148.48-5.04Q151.44-5.04 153.20-6.80Q154.96-8.56 155.76-12.44L155.76-12.44L158.88-28L165.24-28L162.08-12.04Q159.52 0.48 147.76 0.48L147.76 0.48Z M175.84 0.48Q172.52 0.48 169.48-0.40Q166.44-1.28 164.60-2.64L164.60-2.64L167.24-7.64Q169.16-6.24 171.56-5.48Q173.96-4.72 176.48-4.72L176.48-4.72Q179.16-4.72 180.72-5.60Q182.28-6.48 182.28-8L182.28-8Q182.28-9.24 181.04-9.90Q179.80-10.56 177.08-11.32L177.08-11.32Q174.36-12.12 172.64-12.86Q170.92-13.60 169.66-15.08Q168.40-16.56 168.40-19L168.40-19Q168.40-21.84 169.98-24Q171.56-26.16 174.46-27.32Q177.36-28.48 181.20-28.48L181.20-28.48Q184.04-28.48 186.56-27.86Q189.08-27.24 190.88-26.08L190.88-26.08L188.44-21.12Q186.88-22.20 184.92-22.74Q182.96-23.28 180.84-23.28L180.84-23.28Q178.08-23.28 176.48-22.32Q174.88-21.36 174.88-19.84L174.88-19.84Q174.88-18.92 175.56-18.30Q176.24-17.68 177.28-17.30Q178.32-16.92 180.20-16.40L180.20-16.40Q182.88-15.68 184.60-14.94Q186.32-14.20 187.54-12.78Q188.76-11.36 188.76-9.04L188.76-9.04Q188.76-6.16 187.16-4.02Q185.56-1.88 182.64-0.70Q179.72 0.48 175.84 0.48L175.84 0.48Z M206.32 0.48Q202.12 0.48 198.98-1.04Q195.84-2.56 194.16-5.32Q192.48-8.08 192.48-11.68L192.48-11.68Q192.48-16.44 194.66-20.26Q196.84-24.08 200.80-26.28Q204.76-28.48 209.88-28.48L209.88-28.48Q213.64-28.48 216.52-27.20Q219.40-25.92 220.88-23.52L220.88-23.52L216.20-19.68Q213.96-22.96 209.44-22.96L209.44-22.96Q206.36-22.96 204-21.52Q201.64-20.08 200.34-17.60Q199.04-15.12 199.04-12.08L199.04-12.08Q199.04-8.84 201.10-6.94Q203.16-5.04 206.88-5.04L206.88-5.04Q211.32-5.04 214.32-8.28L214.32-8.28L218.16-4.36Q214 0.48 206.32 0.48L206.32 0.48Z M220.92 0L226.52-28L233.04-28L228.48-5.28L242.52-5.28L241.44 0L220.92 0Z M270.76-22.80L256.08-22.80L254.88-16.72L267.88-16.72L266.88-11.68L253.84-11.68L252.56-5.20L267.84-5.20L266.76 0L245.08 0L250.68-28L271.84-28L270.76-22.80Z M293 0.48Q289.68 0.48 286.64-0.40Q283.60-1.28 281.76-2.64L281.76-2.64L284.40-7.64Q286.32-6.24 288.72-5.48Q291.12-4.72 293.64-4.72L293.64-4.72Q296.32-4.72 297.88-5.60Q299.44-6.48 299.44-8L299.44-8Q299.44-9.24 298.20-9.90Q296.96-10.56 294.24-11.32L294.24-11.32Q291.52-12.12 289.80-12.86Q288.08-13.60 286.82-15.08Q285.56-16.56 285.56-19L285.56-19Q285.56-21.84 287.14-24Q288.72-26.16 291.62-27.32Q294.52-28.48 298.36-28.48L298.36-28.48Q301.20-28.48 303.72-27.86Q306.24-27.24 308.04-26.08L308.04-26.08L305.60-21.12Q304.04-22.20 302.08-22.74Q300.12-23.28 298-23.28L298-23.28Q295.24-23.28 293.64-22.32Q292.04-21.36 292.04-19.84L292.04-19.84Q292.04-18.92 292.72-18.30Q293.40-17.68 294.44-17.30Q295.48-16.92 297.36-16.40L297.36-16.40Q300.04-15.68 301.76-14.94Q303.48-14.20 304.70-12.78Q305.92-11.36 305.92-9.04L305.92-9.04Q305.92-6.16 304.32-4.02Q302.72-1.88 299.80-0.70Q296.88 0.48 293 0.48L293 0.48Z M314.16 0L318.68-22.72L309.72-22.72L310.80-28L335.20-28L334.12-22.72L325.20-22.72L320.64 0L314.16 0Z M345.80 0.48Q340.52 0.48 337.52-2.14Q334.52-4.76 334.52-9.32L334.52-9.32Q334.52-10.64 334.84-12.32L334.84-12.32L337.96-28L344.48-28L341.36-12.44Q341.12-11.12 341.12-10.08L341.12-10.08Q341.12-7.56 342.50-6.30Q343.88-5.04 346.52-5.04L346.52-5.04Q349.48-5.04 351.24-6.80Q353.00-8.56 353.80-12.44L353.80-12.44L356.92-28L363.28-28L360.12-12.04Q357.56 0.48 345.80 0.48L345.80 0.48Z M364.12 0L369.72-28L381.44-28Q385.72-28 388.82-26.58Q391.92-25.16 393.58-22.52Q395.24-19.88 395.24-16.32L395.24-16.32Q395.24-11.44 393.04-7.74Q390.84-4.04 386.90-2.02Q382.96 0 377.80 0L377.80 0L364.12 0ZM371.68-5.32L378.00-5.32Q381.28-5.32 383.70-6.70Q386.12-8.08 387.40-10.50Q388.68-12.92 388.68-15.96L388.68-15.96Q388.68-19.12 386.64-20.90Q384.60-22.68 380.72-22.68L380.72-22.68L375.16-22.68L371.68-5.32Z M397.16 0L402.76-28L409.28-28L403.68 0L397.16 0Z M424.80 0.48Q420.60 0.48 417.52-1.04Q414.44-2.56 412.80-5.32Q411.16-8.08 411.16-11.68L411.16-11.68Q411.16-16.44 413.34-20.26Q415.52-24.08 419.46-26.28Q423.40-28.48 428.48-28.48L428.48-28.48Q432.68-28.48 435.76-26.96Q438.84-25.44 440.48-22.68Q442.12-19.92 442.12-16.32L442.12-16.32Q442.12-11.56 439.94-7.74Q437.76-3.92 433.82-1.72Q429.88 0.48 424.80 0.48L424.80 0.48ZM425.36-5.04Q428.44-5.04 430.76-6.52Q433.08-8 434.32-10.48Q435.56-12.96 435.56-15.96L435.56-15.96Q435.56-19.16 433.56-21.06Q431.56-22.96 427.92-22.96L427.92-22.96Q424.84-22.96 422.52-21.48Q420.20-20 418.96-17.52Q417.72-15.04 417.72-12.04L417.72-12.04Q417.72-8.84 419.72-6.94Q421.72-5.04 425.36-5.04L425.36-5.04Z"/></g>
</svg>
</g><g opacity="1" transform="rotate(0 16.4692 126.96)">
<svg width="30.0118" height="24" x="16.4692" y="126.96" version="1.1" preserveAspectRatio="none" viewBox="-4.6 -33.68 47.12 37.68">
  <g transform="matrix(1 0 0 1 0 0)" class="icon3"><path id="id-hTdFi603-2" d="M-4.60 4L15.88-33.68L24.12-33.68L3.64 4L-4.60 4Z M13.80 4L34.28-33.68L42.52-33.68L22.04 4L13.80 4Z"/></g>
</svg>
</g></svg></svg>